<svg width="216" height="250" viewBox="0 0 216 250" fill="none" xmlns="http://www.w3.org/2000/svg">
<path d="M94.9086 -23.7021C112.1 -29.3881 130.243 -31.6323 148.301 -30.3067C166.36 -28.981 183.98 -24.1115 200.157 -15.9761C216.333 -7.84065 230.749 3.40131 242.581 17.108C254.413 30.8146 263.429 46.7175 269.115 63.9087C271.412 70.8525 270.856 78.4243 267.57 84.9583C264.284 91.4923 258.537 96.4533 251.593 98.75L42.1391 168.027C35.1953 170.323 27.6235 169.767 21.0895 166.481C14.5555 163.195 9.59449 157.448 7.29783 150.504C-4.18547 115.785 -1.40632 77.9264 15.0239 45.2563C31.4541 12.5863 60.1895 -12.2188 94.9086 -23.7021ZM120.887 54.8431C127.831 52.5464 133.578 47.5854 136.864 41.0514C140.15 34.5174 140.706 26.9456 138.41 20.0018C136.113 13.0579 131.152 7.31086 124.618 4.02482C118.084 0.738771 110.512 0.182942 103.568 2.4796C96.6244 4.77626 90.8773 9.73728 87.5913 16.2713C84.3052 22.8053 83.7494 30.3771 86.0461 37.3209C88.3427 44.2647 93.3037 50.0118 99.8377 53.2978C106.372 56.5839 113.944 57.1397 120.887 54.8431ZM203.661 85.5576C210.605 83.2609 216.352 78.2999 219.638 71.7659C222.924 65.2319 223.48 57.6601 221.183 50.7163C218.886 43.7725 213.925 38.0254 207.391 34.7394C200.857 31.4533 193.286 30.8975 186.342 33.1941C179.398 35.4908 173.651 40.4518 170.365 46.9858C167.079 53.5198 166.523 61.0916 168.82 68.0354C171.116 74.9793 176.077 80.7263 182.611 84.0124C189.145 87.2984 196.717 87.8543 203.661 85.5576ZM72.7522 128.855C79.696 126.559 85.4431 121.598 88.7291 115.064C92.0151 108.53 92.571 100.958 90.2743 94.0141C87.9777 87.0703 83.0166 81.3232 76.4826 78.0372C69.9486 74.7512 62.3769 74.1953 55.433 76.492C48.4892 78.7886 42.7421 83.7497 39.4561 90.2837C36.17 96.8177 35.6142 104.389 37.9109 111.333C40.2075 118.277 45.1685 124.024 51.7025 127.31C58.2366 130.596 65.8083 131.152 72.7522 128.855ZM190.468 133.49L226.361 186.245L229.79 193.099C234.553 207.499 226.668 223.177 212.268 227.94L150.741 248.29C143.797 250.587 136.225 250.031 129.691 246.745C123.157 243.459 118.196 237.712 115.899 230.768L114.565 223.222L111.923 159.468L190.468 133.49Z" fill="#B6EEA6" fill-opacity="0.24"/>
</svg>
